<svg id="Burning-logo" xmlns="http://www.w3.org/2000/svg" width="109" height="72.396" viewBox="0 0 109 72.396">
  <g id="logo_hvid" transform="translate(0 -0.001)">
    <path id="Path_11" data-name="Path 11" d="M109,31.723c-.033.378-.078.753-.1,1.131a13.666,13.666,0,0,1-1.283,4.741,36.093,36.093,0,0,1-5.066,8.243,41.786,41.786,0,0,1-6,5.955A53.577,53.577,0,0,1,83.135,59.7a88.924,88.924,0,0,1-8.592,3.12c-.606.181-1.229.3-1.844.454a.35.35,0,0,1-.459-.216c-.461-1-.955-1.991-1.383-3.008-1.169-2.785-2.281-5.594-3.172-8.486-.05-.164-.088-.333-.128-.5a.268.268,0,0,1,.216-.38c1.046-.29,2.084-.606,3.132-.886a76.639,76.639,0,0,0,8.875-2.778,40.747,40.747,0,0,0,10.066-5.641,24.335,24.335,0,0,0,6.285-7.076,17.247,17.247,0,0,0,2.146-6.138,17.464,17.464,0,0,0-.345-6.877A14.411,14.411,0,0,0,95.955,16.9a32.22,32.22,0,0,0-6.917-7.373A41.078,41.078,0,0,0,76.479,2.863c-.967-.33-1.937-.656-2.9-1a.322.322,0,0,0-.425.126,55.2,55.2,0,0,0-7.785,12.867,59.944,59.944,0,0,0-3.5,9.369,41.137,41.137,0,0,0-.891,4.215,18.37,18.37,0,0,0-.109,3.992,52.372,52.372,0,0,0,2.288,11.529c1.6,5.491,3.574,10.857,5.613,16.2C70.1,63.633,71.47,67.09,72.8,70.56a9.2,9.2,0,0,1,.359,1.414,1.268,1.268,0,0,1-.052.423h-.164a11.088,11.088,0,0,1-1.024-1.148c-.577-.855-1.129-1.732-1.632-2.633A157.829,157.829,0,0,1,60.5,47.411a94.439,94.439,0,0,1-2.989-9.236,35,35,0,0,1-1.034-5.351,13.131,13.131,0,0,1,.05-2.93,32.649,32.649,0,0,1,2.714-8.982,75.2,75.2,0,0,1,4.8-9.1A92.341,92.341,0,0,1,69.5,3.69,20.358,20.358,0,0,1,72,.922,3.261,3.261,0,0,1,75.127.107,58.7,58.7,0,0,1,81.467,2,85.4,85.4,0,0,1,91.1,5.971a39.928,39.928,0,0,1,8.471,5.679,32.506,32.506,0,0,1,6.183,6.953,21.064,21.064,0,0,1,2.863,6.271,21.165,21.165,0,0,1,.328,2.336c.024.178.038.359.057.537Q108.993,29.733,109,31.723Z" fill="#fff"/>
    <path id="Path_12" data-name="Path 12" d="M37.119,63.327a38.838,38.838,0,0,1-8.1-2.386A77.131,77.131,0,0,1,16.2,54.3a42.925,42.925,0,0,1-7.485-6.247,36.707,36.707,0,0,1-4.769-6A25.88,25.88,0,0,1,.3,32.744a16.855,16.855,0,0,1-.216-4.738,20.733,20.733,0,0,1,1.694-5.9,28.919,28.919,0,0,1,9.453-11.786,50.365,50.365,0,0,1,9.819-5.717A83.955,83.955,0,0,1,31.169.858,30,30,0,0,1,34.327.083,3.778,3.778,0,0,1,37.87,1.307a28.6,28.6,0,0,1,2.754,3.5A103.011,103.011,0,0,1,47.5,16.149c1.369,2.554,2.657,5.149,3.8,7.813a14.274,14.274,0,0,1,1.221,4.928c.067,1.34.135,2.68.157,4.023a18.115,18.115,0,0,1-.834,5.266A115.3,115.3,0,0,1,46.8,52.127c-2.44,5.663-5.021,11.261-8.015,16.657-.566,1.019-1.226,1.989-1.858,2.97a2.406,2.406,0,0,1-.492.5c-.159.133-.29.052-.295-.135a1.613,1.613,0,0,1,.081-.585c.751-2.055,1.478-4.12,2.279-6.157,2.029-5.152,4.049-10.3,5.815-15.552a90.381,90.381,0,0,0,3.11-11.092c.323-1.621.53-3.27.734-4.912a22.8,22.8,0,0,0,.045-4.781,33.48,33.48,0,0,0-1.267-6.463A58.76,58.76,0,0,0,39.255,6.195c-.737-1.1-1.571-2.129-2.367-3.187a1.938,1.938,0,0,0-2.276-.663,37.414,37.414,0,0,0-6.8,2.538,44.09,44.09,0,0,0-9.581,6.157,22.8,22.8,0,0,0-6.318,8.7A15.138,15.138,0,0,0,10.743,26a17.651,17.651,0,0,0,1.49,6.442A21.753,21.753,0,0,0,18.112,40.3a37.363,37.363,0,0,0,9.343,5.853A61.93,61.93,0,0,0,36.3,49.266c1.426.4,2.828.893,4.234,1.357a4.632,4.632,0,0,1,.784.371c.383.216.39.228.254.642-.264.8-.516,1.6-.82,2.386q-1.768,4.584-3.562,9.156C37.174,63.224,37.148,63.272,37.119,63.327Z" fill="#fff"/>
    <path id="Path_13" data-name="Path 13" d="M54.363,65.532c-2.1-.055-4.189-.086-6.283-.169a13.668,13.668,0,0,1-4-.829c-.416-.147-.475-.223-.342-.644.356-1.129.682-2.272,1.133-3.362,1.048-2.531,2.165-5.035,3.253-7.552.166-.383.347-.758.5-1.143a.3.3,0,0,1,.326-.209q5.664-.007,11.325-.026a.268.268,0,0,1,.29.178c1.495,3.434,3,6.863,4.479,10.3a9.93,9.93,0,0,1,.5,1.77.71.71,0,0,1-.608.967,13.477,13.477,0,0,1-1.742.273C60.259,65.349,57.312,65.449,54.363,65.532Z" fill="#fff"/>
    <path id="Path_14" data-name="Path 14" d="M46.481,6.171c1.1-.5,2.148-.974,3.2-1.454q2.324-1.055,4.653-2.1a.556.556,0,0,1,.4-.026c2.619,1.174,5.23,2.362,7.844,3.545a.594.594,0,0,1,.076.05c-.138.176-.269.354-.411.523a61.719,61.719,0,0,0-6.1,8.566,17.134,17.134,0,0,1-1.112,1.575c-.326.432-.437.432-.765-.01-.48-.649-.965-1.3-1.392-1.977A63.816,63.816,0,0,0,49.3,9.51c-.791-1.015-1.654-1.975-2.486-2.958C46.714,6.435,46.612,6.321,46.481,6.171Z" fill="#fff"/>
  </g>
</svg>
