<svg xmlns="http://www.w3.org/2000/svg" xmlns:xlink="http://www.w3.org/1999/xlink" width="654.949" height="380.641" viewBox="0 0 654.949 380.641">
  <defs>
    <clipPath id="clip-path">
      <path id="Path_1" data-name="Path 1" d="M0,188.83H654.949V-191.811H0Z" transform="translate(0 191.811)" fill="none"/>
    </clipPath>
  </defs>
  <g id="Group_7" data-name="Group 7" transform="translate(0 191.811)">
    <g id="Group_2" data-name="Group 2" transform="translate(0 -191.811)" clip-path="url(#clip-path)">
      <g id="Group" transform="translate(82.655 51.091)">
        <text id="Burning" transform="translate(0 99)" fill="#ff4a1d" font-size="124" font-family="ShowcardGothic-Reg, Showcard Gothic" letter-spacing="0.03em"><tspan x="0" y="0">Burning</tspan></text>
        <text id="_" data-name=" " transform="translate(570.758 99)" fill="#ff4a1d" font-size="124" font-family="ShowcardGothic-Reg, Showcard Gothic" letter-spacing="0.03em"><tspan x="0" y="0"> </tspan></text>
      </g>
    </g>
    <text id="man" transform="translate(234.009 107.305)" fill="#ff4a1d" font-size="123" font-family="ShowcardGothic-Reg, Showcard Gothic" letter-spacing="0.03em"><tspan x="0" y="0">man</tspan></text>
    <g id="Group_6" data-name="Group 6" transform="translate(0 -191.811)" clip-path="url(#clip-path)">
      <g id="Group_3" data-name="Group 3" transform="translate(-0.001 0.001)">
        <path id="Path_2" data-name="Path 2" d="M20.478,30.706C19.384,23.181,24.984,17.442,23.3,9.087,21.942,2.34,18.4-1.206,19.372-9.293,22.113-7.372,26.7-1.337,28.336,1.7c1.1,2.05,1.087,5.876,2.076,8.126,1.373,3.126,3.812,6.231,5.235,9.535C38.53,26.066,44,44.764,52.459,40.977c-.236-5.233,4.308-5.568,6.037-9.545,1.713-3.945.923-8.932.843-13.2,2.34,4.622,1.443,10.083,1.413,15.159C60.709,40.854,62,45.5,63.5,52.084c1.582,6.979,3.62,12.877,3.959,20.238.3,6.584-.758,13.431.316,19.934.873-5.88,8.488-6.781,11.907-12.28-.377,7.616,0,14.276,1.881,20.539,1.613,5.366,4.7,13.772,3.443,20.5-2.354,12.637-16.126,17-27.52,17.193-10.893.185-19.356-7.97-28.439-12.026,4.273,1.909-8.978-7.525-5.612-4.181-2.542-2.524-5.162-2.183-4.5-7.529-2.633-1.341-5-2.473-7.7-3.673,1.633-6.7-5.894-11.806-7.3-17.6C1.981,85.191,4.967,76.172,3.12,68.234c-1.282-5.507-3.479-4.223-6.271-8.6-2.294-3.592-1.766-7.152-4.876-10.859-3.989-4.759-9.121-7.706-12.774-13.028,2.56,1.949,5.652,6.475,7.906,7.849,3.919,2.389,8.321-.651,9.768,5.562l0,0c15.179-3.5,3.187-28.219.943-36.943C-3.834,5.8.853-24.131-11.321-23.577a15,15,0,0,0-2.671-7.591c5.949-.4,8.363,4.515,11.54,8.408C3.536-15.423,1.568-10.966,4.618-3.117,8.71,7.418,20.025,15.495,19.136,28.021" transform="translate(20.801 31.19)" fill="#ff4a1d"/>
      </g>
      <g id="Group_4" data-name="Group 4" transform="translate(32.235 60.657)">
        <path id="Path_3" data-name="Path 3" d="M19.395,52.111c-4.386.633-6.963-.454-10.307-2.627C6.708,47.938,5.652,44.535,3.269,43.5c-2.435-1.052-5.9,1.967-8.394-.187-1.4-1.213-.135-4.237-1.393-5.739-.9-1.078-3.612-4.173-4.213-4.933C-13.357,29.334-15.2,29.4-16.3,23.783-19.971,5.161-1.8-10.979-19.7-24.34c2.862,1.641,4.717,5.215,6.184,7.6,6.761-3.661-.752-9.3-1.855-13.431-1.6-6-1.877-16.544-.958-22.764,3.352,5.672,8.315,13.242,10.472,19.652,1.834,5.449-3.588,27.646,8.539,24.1C.935-17.045,8.091-23.4,9.913-30.234c1.794-6.727-2.324-20.122-6.652-22.631.675,4.171,5.918,12.046,8.432,15.788,3.729,5.545,5.634,7.523,7.7,14.387,1.524,5.046,4.914,11.458,5.682,16.483,1.082,7.077-.8,14.725.044,21.887,5.513,1.935,5.523-38.423,9.742-39.548-.778,2.324,8.72,29.533.843,38.25C39.646,25.353,48.66,37.6,45,45.168c-5.362,11.091-15.141,9.714-26.991,9.714" transform="translate(19.701 52.934)" fill="#ff6b22"/>
      </g>
      <g id="Group_5" data-name="Group 5" transform="translate(49.292 100.838)">
        <path id="Path_4" data-name="Path 4" d="M12.853,30.626C3.783,32.2-3.967,20.223-8.94,14.17c-6.969-8.484-2.768-24.129-3.687-35.339a15.043,15.043,0,0,1,3.81,1.544c.208,2.346,1.736,3.118,2.08,5.152.443,2.629-.339,4.642.532,7.174C-5.628-5.619-1.73,4.585.345,2.252,2.274.085.665-9.556.665-12.5a74.066,74.066,0,0,1,.96-14.391C1.488-15.966,8.138,2.214,13.483,1.138,22.6-.7,22.391-23.167,23.294-31.109c4.533,7.166,3.689,6.322,7.372,14.858,2.109,4.886,2,15.378-.149,20.2-1.3,2.915,2.121,4.124.4,6.422-.772,1.032-.109,2.244-.843,3.094-.494.572-2.621,3.963-2.812,4.219-1.613,2.145-6.017,3.741-7.313,5.624-2.459,3.574-7.031,2.806-7.1,7.317" transform="translate(13.056 31.109)" fill="#ff8e28"/>
      </g>
    </g>
  </g>
</svg>
