<svg xmlns="http://www.w3.org/2000/svg" xmlns:xlink="http://www.w3.org/1999/xlink" width="390.604" height="81.43" viewBox="0 0 390.604 81.43">
  <defs>
    <clipPath id="clip-path">
      <path id="Path_6" data-name="Path 6" d="M0-128.811H280.9v-63H0Z" transform="translate(0 200.993)" fill="none"/>
    </clipPath>
    <clipPath id="clip-path-2">
      <path id="Path_10" data-name="Path 10" d="M0-110.381H43.987v-81.43H0Z" transform="translate(0 191.811)" fill="none"/>
    </clipPath>
  </defs>
  <g id="Group_13" data-name="Group 13" transform="translate(0 191.811)">
    <g id="Group_8" data-name="Group 8" transform="translate(0 -191.811)" clip-path="url(#clip-path)">
      <g id="Group" transform="translate(34.268 21.182)">
        <text id="Burning" transform="translate(0 41)" fill="#ff4a1d" font-size="51" font-family="ShowcardGothic-Reg, Showcard Gothic" letter-spacing="0.03em"><tspan x="0" y="0">Burning</tspan></text>
        <text id="_" data-name=" " transform="translate(236.632 41)" fill="#ff4a1d" font-size="51" font-family="ShowcardGothic-Reg, Showcard Gothic" letter-spacing="0.03em"><tspan x="0" y="0"> </tspan></text>
      </g>
    </g>
    <text id="man" transform="translate(280.604 -129.958)" fill="#ff4a1d" font-size="51" font-family="ShowcardGothic-Reg, Showcard Gothic" letter-spacing="0.03em"><tspan x="0" y="0">man</tspan></text>
    <g id="Group_12" data-name="Group 12" transform="translate(0 -191.811)" clip-path="url(#clip-path-2)">
      <g id="Group_9" data-name="Group 9" transform="translate(0 0)">
        <path id="Path_7" data-name="Path 7" d="M-3.687-5.529c-.453-3.12,1.868-5.5,1.171-8.963-.564-2.8-2.031-4.268-1.629-7.62A17.918,17.918,0,0,1-.429-17.556c.457.85.451,2.436.861,3.369C1-12.891,2.012-11.6,2.6-10.233,3.8-7.452,6.063.3,9.572-1.27c-.1-2.17,1.786-2.309,2.5-3.957s.383-3.7.35-5.473c.97,1.916.6,4.18.586,6.285a30.025,30.025,0,0,0,1.139,7.75c.656,2.894,1.5,5.339,1.641,8.39.126,2.73-.314,5.568.131,8.264.362-2.438,3.519-2.811,4.936-5.091a24.882,24.882,0,0,0,.78,8.515c.669,2.225,1.947,5.71,1.427,8.5-.976,5.239-6.686,7.048-11.41,7.128-4.516.077-8.025-3.3-11.791-4.986,1.771.791-3.722-3.12-2.327-1.734-1.054-1.047-2.14-.905-1.864-3.121-1.092-.556-2.075-1.025-3.192-1.523.677-2.778-2.444-4.894-3.029-7.3-.809-3.319.429-7.058-.337-10.349-.531-2.283-1.442-1.751-2.6-3.566-.951-1.489-.732-2.965-2.021-4.5-1.654-1.973-3.781-3.195-5.3-5.4,1.061.808,2.343,2.685,3.278,3.254,1.625.991,3.45-.27,4.05,2.306h0c6.293-1.45,1.321-11.7.391-15.316-.685-2.658,1.259-15.068-3.789-14.838a6.217,6.217,0,0,0-1.107-3.147c2.467-.165,3.467,1.872,4.784,3.486,2.483,3.042,1.667,4.89,2.931,8.144,1.7,4.368,6.388,7.716,6.019,12.91" transform="translate(20.801 31.19)" fill="#ff4a1d"/>
      </g>
      <g id="Group_10" data-name="Group 10" transform="translate(13.364 25.148)">
        <path id="Path_8" data-name="Path 8" d="M-3.492-9.383a5.482,5.482,0,0,1-4.273-1.089c-.986-.641-1.424-2.052-2.412-2.479-1.01-.436-2.447.815-3.48-.077-.582-.5-.056-1.757-.578-2.379-.374-.447-1.5-1.73-1.747-2.045-1.088-1.373-1.852-1.346-2.31-3.674-1.52-7.721,6.013-14.412-1.409-19.951a8.666,8.666,0,0,1,2.564,3.151c2.8-1.518-.312-3.854-.769-5.568a28.6,28.6,0,0,1-.4-9.438c1.39,2.351,3.447,5.49,4.342,8.148.76,2.259-1.488,11.462,3.54,9.99-.723-3.258,2.244-5.893,3-8.726.744-2.789-.963-8.343-2.758-9.383.28,1.729,2.453,4.994,3.5,6.546,1.546,2.3,2.336,3.119,3.194,5.965.632,2.092,2.037,4.751,2.356,6.834.448,2.934-.33,6.1.018,9.074,2.286.8,2.29-15.93,4.039-16.4-.323.963,3.615,12.244.35,15.858C4.9-20.477,8.641-15.4,7.124-12.262,4.9-7.663.846-8.234-4.066-8.234" transform="translate(19.701 52.934)" fill="#ff6b22"/>
      </g>
      <g id="Group_11" data-name="Group 11" transform="translate(20.436 41.807)">
        <path id="Path_9" data-name="Path 9" d="M-2.314-5.514c-3.761.653-6.974-4.313-9.035-6.822-2.889-3.517-1.148-10-1.529-14.651a6.237,6.237,0,0,1,1.58.64c.086.972.72,1.293.862,2.136.183,1.09-.141,1.924.22,2.974.239.7,1.855,4.927,2.716,3.96.8-.9.132-4.9.132-6.116a30.707,30.707,0,0,1,.4-5.967c-.057,4.53,2.7,12.067,4.916,11.621C1.727-18.5,1.64-27.816,2.014-31.109c1.879,2.971,1.529,2.621,3.056,6.16a13.586,13.586,0,0,1-.062,8.376c-.538,1.209.88,1.71.167,2.662-.32.428-.045.931-.35,1.283-.2.237-1.087,1.643-1.166,1.749C2.992-9.99,1.166-9.329.629-8.548-.391-7.066-2.286-7.384-2.314-5.514" transform="translate(13.056 31.109)" fill="#ff8e28"/>
      </g>
    </g>
  </g>
</svg>
